<svg width="256" height="256" viewBox="0 0 256 256" fill="none" xmlns="http://www.w3.org/2000/svg">
  <!-- Background -->
  <rect width="256" height="256" fill="#0D1117"/>
  
  <!-- SQL Database Icon -->
  <path d="M128 48C94.5112 48 64 78.5112 64 112V192C64 225.489 94.5112 256 128 256C161.489 256 192 225.489 192 192V112C192 78.5112 161.489 48 128 48ZM144 192V112C144 95.4872 137.146 80.7449 126.343 70.3427C125.594 69.5773 124.406 69.5773 123.657 70.3427C112.854 80.7449 106 95.4872 106 112V192C106 197.523 110.477 202 116 202H140C145.523 202 150 197.523 150 192Z" fill="white"/>
  
  <!-- SQL Logo -->
  <path d="M46.7495 156.128H51.4954V160.016H54.0085V160.991H46.7495V156.128ZM58.2414 160.016H56.3463L60.1063 153.598L61.9113 156.128H59.9842L59.1133 154.944L58.2414 156.128H58.2534H58.2414ZM72.4761 160.991H70.601V156.128H72.4761V160.991ZM76.187 156.128H76.199V160.991H76.187V156.128ZM80.1099 158.747H80.6219C81.3339 158.747 81.6489 158.434 81.6489 157.874C81.6489 157.434 81.3929 157.234 80.6539 157.062L80.013 156.922C78.8021 156.538 78.1741 156.04 78.1741 155.254C78.1741 154.352 79.006 153.898 80.1979 153.898C81.2979 153.898 82.4578 154.292 82.9938 154.84L82.2659 155.942C81.7719 155.6 81.4399 155.46 81.1539 155.46C80.7019 155.46 80.4179 155.678 80.4179 156.058C80.4179 156.364 80.5419 156.554 80.9979 156.71L81.6699 156.862C82.9548 157.292 83.6938 157.728 83.6938 158.556C83.6938 159.42 82.9399 159.848 81.9329 159.848C80.8319 159.848 79.8539 159.398 79.3229 158.64L79.3509 158.758H80.1099V158.747ZM87.8535 160.016H85.9584L89.7184 153.598L91.5234 156.128H89.5964L88.7254 154.944L87.8535 156.128H87.8655H87.8535ZM106.867 160.991H105.002V153.76H106.867V160.991ZM111.104 157.162C111.093 156.312 111.54 155.822 112.249 155.822C112.792 155.822 113.174 156.138 113.174 156.604C113.174 157.07 112.858 157.162 111.932 157.33L111.248 157.466C109.924 157.738 109.295 158.178 109.295 159.12C109.295 159.994 110.178 160.502 111.459 160.502C112.495 160.502 113.522 160.06 113.977 159.332L113.961 159.242H113.174H113.162L112.45 157.31H112.45H112.437L111.717 159.242H111.104L110.392 157.31H110.38H110.368L109.651 159.242H109.029L109.017 157.31H109.005H108.992L108.277 159.242H107.655L107.643 157.31H107.631H107.618L106.907 159.242H106.305L106.314 160.991H107.591L107.558 159.576H107.583L107.594 159.576C108.156 160.306 109.072 160.847 110.255 160.847C111.385 160.847 112.357 160.384 112.843 159.66L112.855 159.66H112.855L113.619 161H114.452C114.13 161.59 113.562 162 112.778 162C111.973 162 111.172 161.59 110.883 161.076L110.877 161.076L110.874 161.076C110.549 161.65 109.973 162 109.199 162C108.35 162 107.684 161.504 107.329 160.802L107.319 160.802H107.306C106.826 161.474 106.203 162 105.444 162C104.601 162 103.849 161.56 103.514 160.794L103.514 160.794H103.505C103.192 161.354 102.567 161.802 101.848 161.802C101.073 161.802 100.412 161.264 100.131 160.532L100.14 160.532L100.14 160.522C99.8083 161.036 99.1933"/>
</svg> 
