<svg width="25" height="25" viewBox="0 0 48 48" fill="none" xmlns="http://www.w3.org/2000/svg">
<path d="M48 8.903c-1.76.781-3.644 1.308-5.617 1.547 2.018-1.21 3.562-3.125 4.294-5.408-1.886 1.117-3.97 1.931-6.187 2.368-1.779-1.894-4.317-3.075-7.12-3.075-5.388 0-9.755 4.367-9.755 9.755 0 .764.086 1.509.252 2.224-8.105-.407-15.296-4.287-20.1-10.18-.84 1.444-1.32 3.125-1.32 4.919 0 3.396 1.728 6.387 4.352 8.143-1.603-.051-3.111-.492-4.428-1.224v.123c0 4.742 3.373 8.698 7.846 9.6-.822.224-1.686.344-2.579.344-.63 0-1.24-.062-1.837-.175 1.242 3.875 4.844 6.7 9.112 6.777-3.34 2.617-7.548 4.178-12.126 4.178-.79 0-1.57-.045-2.339-.137 4.322 2.772 9.448 4.391 14.961 4.391 17.947 0 27.757-14.874 27.757-27.758 0-.424-.011-.848-.029-1.268 1.906-1.375 3.559-3.095 4.866-5.05z" fill="#1DA1F2"/>
</svg>
