<svg width="25" height="25" viewBox="0 0 48 48" fill="none" xmlns="http://www.w3.org/2000/svg">
<path d="M24 0C10.744 0 0 10.744 0 24c0 4.25 1.104 8.294 3.043 11.854L0 48l12.488-3.024A23.872 23.872 0 0024 48c13.256 0 24-10.744 24-24S37.256 0 24 0zm0 44.063a20.036 20.036 0 01-10.586-3.06l-.759-.456-7.43 1.798 1.925-7.231-.493-.752A20.028 20.028 0 013.937 24C3.937 12.825 12.825 3.938 24 3.938S44.063 12.825 44.063 24 35.175 44.063 24 44.063z" fill="#25D366"/>
<path d="M36.601 29.524c-.617-.308-3.653-1.802-4.217-2.006-.563-.205-.973-.308-1.384.309-.412.617-1.59 2.006-1.947 2.418-.358.412-.718.463-1.335.154-.617-.308-2.617-.963-4.985-3.071-1.84-1.64-3.071-3.675-3.427-4.292-.358-.617-.038-.951.27-1.26.277-.277.617-.72.925-1.081.308-.36.412-.617.617-1.03.205-.412.103-.772-.051-1.081-.155-.308-1.384-3.342-1.893-4.572-.501-1.208-1.007-1.04-1.384-1.06-.359-.018-.772-.021-1.18-.021-.41 0-1.08.155-1.64.772-.563.617-2.148 2.094-2.148 5.107s2.2 5.926 2.51 6.338c.308.412 4.35 6.65 10.521 9.326 1.468.63 2.613 1.005 3.507 1.284 1.475.468 2.819.4 3.88.243 1.183-.176 3.653-1.493 4.166-2.934.514-1.442.514-2.681.36-2.935-.155-.257-.563-.412-1.18-.72z" fill="#FFF"/>
</svg>
