<svg width="48" height="48" viewBox="0 0 48 48" fill="none" xmlns="http://www.w3.org/2000/svg">
<path d="M24 4C13.53 4 5 12.53 5 23c0 6.47 3.44 12.16 8.62 15.46l-1.84 4.91 4.97-1.83C19.85 42.7 21.88 43 24 43c10.47 0 19-8.53 19-19S34.47 4 24 4zm0 2c9.39 0 17 7.61 17 17s-7.61 17-17 17c-2.04 0-4.03-.36-5.89-1.06l-1.3-.49-2.76 1.02.77-2.04-1.45-.93C9.76 35.01 7 29.33 7 23 7 13.61 14.61 6 24 6zm-1.82 7c-2.26 0-4.06 1.83-4.06 4.09 0 1.09.44 2.11 1.23 2.91.15.14.31.28.5.4a4.14 4.14 0 00-.5-.07c-2.26 0-4.1 1.82-4.1 4.06s1.84 4.06 4.1 4.06c1.48 0 2.8-.78 3.52-1.94.15-.02.28-.07.43-.09.03.01.06.02.1.02.13 0 .27-.03.41-.04.66 1.19 1.93 2 3.36 2 2.13 0 3.87-1.7 3.87-3.87 0-.97-.38-1.85-1-2.52.23-.47.36-1.01.36-1.58 0-2.26-1.84-4.06-4.1-4.06-.9 0-1.74.29-2.44.8a3.89 3.89 0 00-2.6-1.02c-.15 0-.3.02-.45.04A4.07 4.07 0 0022.18 13zm0 2c1.17 0 2.12.95 2.12 2.12s-.95 2.12-2.12 2.12-2.12-.95-2.12-2.12.95-2.12 2.12-2.12zm6.84 5.93c1.04 0 1.87.83 1.87 1.87s-.83 1.87-1.87 1.87-1.87-.83-1.87-1.87.83-1.87 1.87-1.87zm-6.84 1.13c1.17 0 2.12.95 2.12 2.12s-.95 2.12-2.12 2.12-2.12-.95-2.12-2.12.95-2.12 2.12-2.12z" fill="#2196F3"/>
</svg>
